M48
;Layer_Color=9474304
;FILE_FORMAT=4:4
METRIC,LZ
;TYPE=PLATED
T1F00S00C0.5080
T2F00S00C0.9000
T3F00S00C3.0000
%
T01
X008505Y0066167
X0089027Y007345
X0091
X0093125Y00609
X0102322Y0066682
X0076475Y006395
X007275Y006435
X0068025Y0063775
X006605Y00591
X0062175Y00666
X0061975Y0078075
X0071475Y0070525
X00777Y005885
X0077275Y0079925
X008505Y0080525
X0100036Y0084716
T02
X0102775Y0061371
X0105315
X01053Y0072
X010276
X0102735Y0076475
X0105275
T03
X010414Y0056388
X0063119
X0062992Y0091948
X0104023Y0091973
M30
